# xmcd
#
# Track frame offsets:
# 150
# 10916
# 21825
# 34158
# 42548
# 54847
# 62565
# 74573
# 84718
# 94531
# 108161
# 119928
# 132474
# 152741
#
# Disc length: 2175 seconds
#
#
# Revision: 0
# Processed by: cddbd v1.5.2PL0 Copyright (c) Steve Scherf et al.
# Submitted via: FreeRIP 2.945 
#
DISCID=c0087d0e
DTITLE=Johnny Horsepower - Live at fingerbøllet
DYEAR=2011
DGENRE=Country
TTITLE0=Luther played the boogie
TTITLE1=Big river
TTITLE2=Folsom prison blues
TTITLE3=Blue train
TTITLE4=I walk the line
TTITLE5=Hey good looking
TTITLE6=The man in black
TTITLE7=Wanted man
TTITLE8=reck of old
TTITLE9=Cocaine blues
TTITLE10=Get rythm
TTITLE11=Rock´n roll Ruby (Bonus track)
TTITLE12=Sunday morning coming down (Bonus track)
TTITLE13=Oh lonesome me (Bonus track)
EXTD=
EXTT0=
EXTT1=
EXTT2=
EXTT3=
EXTT4=
EXTT5=
EXTT6=
EXTT7=
EXTT8=
EXTT9=
EXTT10=
EXTT11=
EXTT12=
EXTT13=
PLAYORDER=
